<svg width="35" height="35" viewBox="0 0 35 35" fill="none" xmlns="http://www.w3.org/2000/svg">
<path d="M24.7917 12.3959C25.9998 12.3959 26.9792 11.4165 26.9792 10.2084C26.9792 9.00025 25.9998 8.02087 24.7917 8.02087C23.5835 8.02087 22.6042 9.00025 22.6042 10.2084C22.6042 11.4165 23.5835 12.3959 24.7917 12.3959Z" fill="black"/>
<path d="M23.3333 4.375C27.3583 4.375 30.625 7.64167 30.625 11.6667V23.3333C30.625 27.3583 27.3583 30.625 23.3333 30.625H11.6667C7.64167 30.625 4.375 27.3583 4.375 23.3333V11.6667C4.375 7.64167 7.64167 4.375 11.6667 4.375H17.5H23.3333Z" stroke="black" stroke-width="2" stroke-linecap="round" stroke-linejoin="round"/>
<path d="M17.5 11.6666C20.7229 11.6666 23.3333 14.277 23.3333 17.5C23.3333 20.7229 20.7229 23.3333 17.5 23.3333C14.2771 23.3333 11.6667 20.7229 11.6667 17.5C11.6667 14.277 14.2771 11.6666 17.5 11.6666Z" stroke="black" stroke-width="2" stroke-linecap="round" stroke-linejoin="round"/>
</svg>
