<svg width="25" height="25" viewBox="0 0 25 25" fill="none" xmlns="http://www.w3.org/2000/svg">
<path d="M6.9 5.26001C8.39031 3.7995 10.3968 2.98614 12.4834 2.99668C14.5701 3.00722 16.5682 3.84081 18.0437 5.3163C19.5192 6.79179 20.3528 8.78995 20.3633 10.8766C20.3739 12.9632 19.5605 14.9697 18.1 16.46L13.914 20.646C13.5389 21.021 13.0303 21.2316 12.5 21.2316C11.9697 21.2316 11.4611 21.021 11.086 20.646L6.9 16.46C5.41488 14.9747 4.58057 12.9604 4.58057 10.86C4.58057 8.75964 5.41488 6.74528 6.9 5.26001Z" stroke="#6E6E6E" stroke-width="1.5" stroke-linejoin="round"/>
<path d="M12.5 13.86C14.1569 13.86 15.5 12.5168 15.5 10.86C15.5 9.20313 14.1569 7.85999 12.5 7.85999C10.8431 7.85999 9.5 9.20313 9.5 10.86C9.5 12.5168 10.8431 13.86 12.5 13.86Z" stroke="#6E6E6E" stroke-width="1.5" stroke-linecap="round" stroke-linejoin="round"/>
</svg>
