<svg width="25" height="25" viewBox="0 0 25 25" fill="none" xmlns="http://www.w3.org/2000/svg">
<path d="M20.5 16C19.3 16 18 15.8 16.9 15.4H16.6C16.3 15.4 16.1 15.5 15.9 15.7L13.7 17.9C10.9 16.4 8.5 14.1 7.1 11.3L9.3 9.1C9.6 8.8 9.7 8.4 9.5 8.1C9.2 7 9 5.7 9 4.5C9 4 8.5 3.5 8 3.5H4.5C4 3.5 3.5 4 3.5 4.5C3.5 13.9 11.1 21.5 20.5 21.5C21 21.5 21.5 21 21.5 20.5V17C21.5 16.5 21 16 20.5 16ZM5.5 5.5H7C7.1 6.4 7.3 7.3 7.5 8.1L6.3 9.3C5.9 8.1 5.6 6.8 5.5 5.5ZM19.5 19.5C18.2 19.4 16.9 19.1 15.7 18.7L16.9 17.5C17.7 17.7 18.6 17.9 19.5 17.9V19.5Z" fill="#6E6E6E"/>
</svg>
