<svg width="45" height="45" viewBox="0 0 45 45" fill="none" xmlns="http://www.w3.org/2000/svg">
<path d="M20.7638 4.93688C21.3638 3.35438 23.6344 3.35438 24.2363 4.93688L28.1175 15.6881C28.2529 16.0384 28.4914 16.3393 28.8013 16.5512C29.1113 16.7631 29.4783 16.876 29.8538 16.875H39.3919C41.1544 16.875 41.9231 19.0688 40.5375 20.1431L33.75 26.25C33.4464 26.4841 33.2246 26.8081 33.1162 27.1759C33.0077 27.5436 33.0183 27.9361 33.1463 28.2975L35.625 38.8031C36.2288 40.4906 34.275 41.94 32.7975 40.9012L23.5781 35.0513C23.2624 34.8294 22.8859 34.7103 22.5 34.7103C22.1141 34.7103 21.7376 34.8294 21.4219 35.0513L12.2025 40.9012C10.7269 41.94 8.77127 40.4887 9.37502 38.8031L11.8538 28.2975C11.9818 27.9361 11.9923 27.5436 11.8839 27.1759C11.7755 26.8081 11.5536 26.4841 11.25 26.25L4.46252 20.1431C3.07502 19.0688 3.84752 16.875 5.60627 16.875H15.1444C15.5199 16.876 15.8868 16.7631 16.1968 16.5512C16.5068 16.3393 16.7452 16.0384 16.8806 15.6881L20.7638 4.93688Z" stroke="black" stroke-width="3" stroke-linecap="round" stroke-linejoin="round"/>
</svg>
