<svg width="35" height="35" viewBox="0 0 35 35" fill="none" xmlns="http://www.w3.org/2000/svg">
<path d="M29.6873 11.3021C29.6804 11.1099 29.6029 10.927 29.4698 10.7883C29.3367 10.6495 29.1571 10.5645 28.9654 10.5496C27.6865 10.4326 26.4662 9.95862 25.4435 9.18171C24.6844 8.6062 24.0493 7.88328 23.5765 7.0563C23.1036 6.22933 22.8026 5.31535 22.6917 4.36921C22.6761 4.17732 22.5908 3.99777 22.4519 3.8645C22.313 3.73122 22.1301 3.65345 21.9377 3.64587H18.8635C18.7633 3.64586 18.664 3.66583 18.5716 3.70463C18.4792 3.74343 18.3954 3.80027 18.3252 3.87183C18.255 3.9434 18.1998 4.02824 18.1627 4.12141C18.1257 4.21457 18.1076 4.31418 18.1096 4.41442V22.7748C18.1044 23.3288 17.9863 23.8759 17.7625 24.3827C17.5387 24.8894 17.2139 25.3453 16.808 25.7223C16.402 26.0993 15.9235 26.3895 15.4016 26.5753C14.8797 26.7611 14.3253 26.8385 13.7725 26.8027C13.141 26.7674 12.5263 26.5867 11.9762 26.2747C11.4261 25.9627 10.9555 25.5277 10.6012 25.0039C10.2469 24.48 10.0184 23.8814 9.93353 23.2547C9.84869 22.6279 9.9098 21.9901 10.1121 21.3909C10.4199 20.5043 11.0201 19.7488 11.8141 19.2485C12.6081 18.7481 13.5486 18.5327 14.4812 18.6375C14.5843 18.6482 14.6885 18.637 14.787 18.6047C14.8854 18.5724 14.976 18.5198 15.0528 18.4502C15.1296 18.3806 15.1908 18.2955 15.2325 18.2007C15.2743 18.1058 15.2955 18.0033 15.295 17.8996V14.3019C15.295 14.3019 13.9883 14.21 13.5421 14.21C12.3986 14.2047 11.2684 14.4546 10.2337 14.9415C9.1991 15.4285 8.28616 16.1401 7.56146 17.0246C6.59831 18.063 5.91133 19.3267 5.56354 20.6996C5.16257 22.3191 5.24442 24.0206 5.79899 25.5941C6.35356 27.1676 7.35659 28.5444 8.68438 29.5546C10.2034 30.726 12.0687 31.359 13.9869 31.3542C14.4253 31.3542 14.8609 31.3236 15.2935 31.2623C17.1201 30.9915 18.8127 30.1449 20.125 28.8459C20.9269 28.0592 21.5652 27.1216 22.0032 26.0872C22.4412 25.0528 22.6702 23.9419 22.6771 22.8186V12.7021C24.4524 14.0726 26.5916 14.8906 28.8283 15.0544C28.9323 15.0607 29.0365 15.0453 29.1342 15.0093C29.232 14.9733 29.3212 14.9175 29.3963 14.8453C29.4714 14.7731 29.5307 14.6861 29.5705 14.5898C29.6103 14.4935 29.6297 14.39 29.6275 14.2859V11.3036L29.6873 11.3021Z" fill="black"/>
</svg>
